<svg width="120" height="108" viewBox="0 0 120 108" fill="none" xmlns="http://www.w3.org/2000/svg">
<path d="M56 45.9844C56 49.6974 54.525 53.2584 51.8995 55.8839C49.274 58.5094 45.713 59.9844 42 59.9844C38.287 59.9844 34.726 58.5094 32.1005 55.8839C29.475 53.2584 28 49.6974 28 45.9844C28 42.2713 29.475 38.7104 32.1005 36.0849C34.726 33.4594 38.287 31.9844 42 31.9844C45.713 31.9844 49.274 33.4594 51.8995 36.0849C54.525 38.7104 56 42.2713 56 45.9844ZM55.828 59.9844H64.172C64.5677 59.9845 64.9546 60.1019 65.2835 60.322C65.6125 60.542 65.8687 60.8546 66.0199 61.2204C66.1711 61.5861 66.2103 61.9885 66.1328 62.3765C66.0552 62.7646 65.8642 63.1209 65.584 63.4004L61.416 67.5684C61.2302 67.7546 61.0095 67.9024 60.7665 68.0032C60.5236 68.1041 60.2631 68.156 60 68.156C59.7369 68.156 59.4764 68.1041 59.2335 68.0032C58.9905 67.9024 58.7698 67.7546 58.584 67.5684L54.416 63.4004C54.1358 63.1209 53.9448 62.7646 53.8672 62.3765C53.7897 61.9885 53.8289 61.5861 53.9801 61.2204C54.1313 60.8546 54.3876 60.542 54.7165 60.322C55.0454 60.1019 55.4323 59.9845 55.828 59.9844ZM60 71.9844C57.8783 71.9844 55.8434 72.8272 54.3431 74.3275C52.8429 75.8278 52 77.8626 52 79.9844V83.9844C52 86.1061 52.8429 88.1409 54.3431 89.6412C55.8434 91.1415 57.8783 91.9844 60 91.9844C62.1217 91.9844 64.1566 91.1415 65.6569 89.6412C67.1571 88.1409 68 86.1061 68 83.9844V79.9844C68 77.8626 67.1571 75.8278 65.6569 74.3275C64.1566 72.8272 62.1217 71.9844 60 71.9844ZM78 59.9844C79.8385 59.9844 81.659 59.6223 83.3576 58.9187C85.0561 58.2151 86.5995 57.1839 87.8995 55.8839C89.1995 54.5839 90.2307 53.0405 90.9343 51.3419C91.6379 49.6434 92 47.8229 92 45.9844C92 44.1459 91.6379 42.3254 90.9343 40.6268C90.2307 38.9282 89.1995 37.3849 87.8995 36.0849C86.5995 34.7849 85.0561 33.7536 83.3576 33.0501C81.659 32.3465 79.8385 31.9844 78 31.9844C74.287 31.9844 70.726 33.4594 68.1005 36.0849C65.475 38.7104 64 42.2713 64 45.9844C64 49.6974 65.475 53.2584 68.1005 55.8839C70.726 58.5094 74.287 59.9844 78 59.9844Z" fill="#383982"/>
<path d="M95.224 2.88437C101.152 -3.07963 112 0.696369 112 9.70437V62.0964C114.52 64.345 116.535 67.1014 117.914 70.1844C119.293 73.2673 120.004 76.6071 120 79.9844V103.984C120 105.045 119.579 106.063 118.828 106.813C118.078 107.563 117.061 107.984 116 107.984H4C2.93913 107.984 1.92172 107.563 1.17157 106.813C0.421427 106.063 0 105.045 0 103.984V79.9844C0 72.8764 3.088 66.4884 8 62.0964V9.70437C8 0.66437 18.892 -3.03563 24.812 2.86037L42.28 19.9844H78.232L95.224 2.88437ZM102.912 8.12437C102.575 7.97992 102.203 7.94083 101.844 8.01223C101.485 8.08364 101.156 8.2622 100.9 8.52437L81.56 27.9844H39.012L19.172 8.53237C18.9069 8.26638 18.5681 8.08606 18.1994 8.01474C17.8307 7.94343 17.4491 7.98441 17.104 8.13237C16.7746 8.23958 16.4889 8.45079 16.2898 8.73426C16.0908 9.01773 15.9891 9.35815 16 9.70437V11.1564L28.584 23.7404C29.1416 24.2976 29.5839 24.9592 29.8856 25.6874C30.1874 26.4156 30.3427 27.1961 30.3427 27.9844C30.3427 28.7726 30.1874 29.5532 29.8856 30.2814C29.5839 31.0096 29.1416 31.6712 28.584 32.2284L16 44.8124V61.6484C19.0441 60.3198 22.3711 59.7703 25.6807 60.0494C28.9903 60.3285 32.1783 61.4275 34.9568 63.247C37.7354 65.0666 40.0171 67.5495 41.5959 70.4716C43.1747 73.3937 44.0009 76.663 44 79.9844V99.9844H76V79.9844C75.9991 76.663 76.8253 73.3937 78.4041 70.4716C79.9829 67.5495 82.2646 65.0666 85.0432 63.247C87.8217 61.4275 91.0097 60.3285 94.3193 60.0494C97.6289 59.7703 100.956 60.3198 104 61.6484V44.8124L91.416 32.2284C90.8584 31.6712 90.4161 31.0096 90.1144 30.2814C89.8126 29.5532 89.6573 28.7726 89.6573 27.9844C89.6573 27.1961 89.8126 26.4156 90.1144 25.6874C90.4161 24.9592 90.8584 24.2976 91.416 23.7404L104 11.1564V9.70437C104.013 9.35947 103.914 9.01965 103.718 8.73562C103.522 8.45159 103.239 8.23457 102.912 8.12437ZM104 16.8164L94.24 26.5764C93.8651 26.9514 93.6544 27.46 93.6544 27.9904C93.6544 28.5207 93.8651 29.0293 94.24 29.4044L104 39.1564V16.8124V16.8164ZM16 39.1564L25.76 29.3964C26.1349 29.0213 26.3456 28.5127 26.3456 27.9824C26.3456 27.452 26.1349 26.9434 25.76 26.5684L16 16.8124V39.1564ZM40 79.9844C40 74.0644 36.784 68.8924 32 66.1244V73.9844C32 74.5148 31.7893 75.0235 31.4142 75.3986C31.0391 75.7737 30.5304 75.9844 30 75.9844C29.4696 75.9844 28.9609 75.7737 28.5858 75.3986C28.2107 75.0235 28 74.5148 28 73.9844V64.4884C25.3761 63.8127 22.6239 63.8127 20 64.4884V73.9844C20 74.5148 19.7893 75.0235 19.4142 75.3986C19.0391 75.7737 18.5304 75.9844 18 75.9844C17.4696 75.9844 16.9609 75.7737 16.5858 75.3986C16.2107 75.0235 16 74.5148 16 73.9844V66.1244C13.5666 67.5283 11.546 69.5486 10.1416 71.9817C8.73722 74.4148 7.99856 77.175 8 79.9844V99.9844H40V79.9844ZM112 79.9844C112 74.0644 108.784 68.8924 104 66.1244V73.9844C104 74.5148 103.789 75.0235 103.414 75.3986C103.039 75.7737 102.53 75.9844 102 75.9844C101.47 75.9844 100.961 75.7737 100.586 75.3986C100.211 75.0235 100 74.5148 100 73.9844V64.4884C97.3761 63.8127 94.6239 63.8127 92 64.4884V73.9844C92 74.5148 91.7893 75.0235 91.4142 75.3986C91.0391 75.7737 90.5304 75.9844 90 75.9844C89.4696 75.9844 88.9609 75.7737 88.5858 75.3986C88.2107 75.0235 88 74.5148 88 73.9844V66.1244C85.5666 67.5283 83.546 69.5486 82.1416 71.9817C80.7372 74.4148 79.9986 77.175 80 79.9844V99.9844H112V79.9844Z" fill="#383982"/>
</svg>
